<svg width="24" height="25" viewBox="0 0 24 25" fill="none" xmlns="http://www.w3.org/2000/svg">
<path d="M22.1836 12.1191L12.5297 2.47221C12.4602 2.40256 12.3776 2.34731 12.2867 2.30961C12.1958 2.27191 12.0984 2.2525 12 2.2525C11.9016 2.2525 11.8041 2.27191 11.7133 2.30961C11.6224 2.34731 11.5398 2.40256 11.4703 2.47221L1.81639 12.1191C1.53514 12.4003 1.37576 12.7824 1.37576 13.1808C1.37576 14.0081 2.04842 14.6808 2.87576 14.6808H3.89295V21.5644C3.89295 21.9792 4.22811 22.3144 4.64295 22.3144H10.5V17.0644H13.125V22.3144H19.357C19.7719 22.3144 20.107 21.9792 20.107 21.5644V14.6808H21.1242C21.5226 14.6808 21.9047 14.5238 22.1859 14.2402C22.7695 13.6542 22.7695 12.705 22.1836 12.1191Z" fill="black"/>
</svg>
